<svg width="31" height="31" viewBox="0 0 31 31" xmlns="http://www.w3.org/2000/svg">
<path fill-rule="evenodd" clip-rule="evenodd" d="M7.03456 6.34232C6.34215 6.34232 5.78078 6.90358 5.78078 7.59645V18.8836C5.78078 19.5765 6.34215 20.1378 7.03456 20.1378H12.0514C12.9589 20.1378 13.8146 20.2803 14.5597 20.6196V8.85058C14.5597 7.78977 14.2953 7.22451 13.9864 6.91559C13.6775 6.60667 13.1122 6.34232 12.0514 6.34232H7.03456ZM15.8138 5.19683C15.7961 5.17841 15.7782 5.16013 15.76 5.14198C14.8148 4.19677 13.4989 3.83406 12.0514 3.83406H7.03456C4.95642 3.83406 3.27252 5.51877 3.27252 7.59645V22.646C3.27252 24.7239 4.957 26.4084 7.03491 26.4084H24.5927C26.6706 26.4084 28.3551 24.7239 28.3551 22.646V7.59645C28.3551 5.51877 26.6712 3.83406 24.5931 3.83406H19.5762C18.1288 3.83406 16.8128 4.19677 15.8676 5.14198C15.8495 5.16013 15.8315 5.17841 15.8138 5.19683ZM17.068 8.85058V20.6196C17.8131 20.2803 18.6688 20.1378 19.5762 20.1378H24.5931C25.2855 20.1378 25.8469 19.5765 25.8469 18.8836V7.59645C25.8469 6.90358 25.2855 6.34232 24.5931 6.34232H19.5762C18.5154 6.34232 17.9501 6.60667 17.6412 6.91559C17.3323 7.22451 17.068 7.78977 17.068 8.85058ZM25.8469 22.432C25.4547 22.5706 25.0327 22.646 24.5931 22.646H19.5762C18.5154 22.646 17.9501 22.9104 17.6412 23.2193C17.4875 23.373 17.3449 23.5901 17.2403 23.9001H24.5927C25.2854 23.9001 25.8469 23.3386 25.8469 22.646V22.432ZM14.3873 23.9001C14.2828 23.5901 14.1401 23.373 13.9864 23.2193C13.6775 22.9104 13.1122 22.646 12.0514 22.646H7.03456C6.59492 22.646 6.17292 22.5706 5.78078 22.432V22.646C5.78078 23.3386 6.34228 23.9001 7.03491 23.9001H14.3873Z" />
</svg>
