<svg width="31" height="31" viewBox="0 0 31 31" xmlns="http://www.w3.org/2000/svg">
<path fill-rule="evenodd" clip-rule="evenodd" d="M14.927 3.41476C15.4168 2.92499 16.2109 2.92499 16.7006 3.41476L19.5762 6.29035V5.5557C19.5762 4.86306 20.1377 4.30157 20.8303 4.30157H24.5927C25.2854 4.30157 25.8469 4.86306 25.8469 5.5557V12.561L27.9878 14.7019C28.4776 15.1917 28.4776 15.9858 27.9878 16.4755C27.498 16.9653 26.704 16.9653 26.2142 16.4755L25.8469 16.1082V24.3676C25.8469 26.4456 24.1624 28.13 22.0845 28.13H9.54317C7.46526 28.13 5.78078 26.4456 5.78078 24.3676V16.1082L5.41346 16.4755C4.92369 16.9653 4.12962 16.9653 3.63985 16.4755C3.15008 15.9858 3.15008 15.1917 3.63985 14.7019L6.14766 12.1941C6.14796 12.1938 6.14826 12.1935 6.14856 12.1932L14.927 3.41476ZM8.28904 13.6V24.3676C8.28904 25.0603 8.85054 25.6218 9.54317 25.6218H22.0845C22.7771 25.6218 23.3386 25.0603 23.3386 24.3676V13.6L19.9437 10.2051C19.9436 10.2049 19.9435 10.2048 19.9434 10.2047L15.8138 6.07517L8.28904 13.6ZM22.0845 8.79861L23.3386 10.0527V6.80983H22.0845V8.79861Z"/>
</svg>
