<svg width="31" height="31" viewBox="0 0 31 31" xmlns="http://www.w3.org/2000/svg">
<path fill-rule="evenodd" clip-rule="evenodd" d="M22.2423 13.3459C22.2423 8.2006 18.0712 4.02951 12.9259 4.02951C7.78062 4.02951 3.60953 8.2006 3.60953 13.3459C3.60953 18.4912 7.78062 22.6623 12.9259 22.6623C15.0459 22.6623 17.0018 21.9531 18.5671 20.7607L25.2971 27.4907C25.7868 27.9804 26.5809 27.9804 27.0707 27.4907C27.5604 27.0009 27.5604 26.2068 27.0707 25.7171L20.3407 18.9871C21.5331 17.4218 22.2423 15.4659 22.2423 13.3459ZM12.9259 6.53777C16.686 6.53777 19.7341 9.58588 19.7341 13.3459C19.7341 15.2263 18.9734 16.9266 17.74 18.16C16.5066 19.3934 14.8063 20.154 12.9259 20.154C9.16589 20.154 6.11779 17.1059 6.11779 13.3459C6.11779 9.58588 9.16589 6.53777 12.9259 6.53777Z" />
</svg>
